# AST/ASF file generated using VICON BodyLanguage
# -----------------------------------------------
:version 1.10
:name VICON
:units
  mass 1.0
  length 0.45
  angle deg
:documentation
   .ast/.asf automatically generated from VICON data using
   VICON BodyBuilder and BodyLanguage model FoxedUp or BRILLIANT.MOD
:root
   order TX TY TZ RX RY RZ
   axis XYZ
   position 0 0 0  
   orientation 0 0 0 
:bonedata
  begin
     id 1 
     name lhipjoint
     direction 0.61886 -0.69539 0.365302 
     length 2.20474 
     axis 0 0 0  XYZ
  end
  begin
     id 2 
     name lfemur
     direction 0.34202 -0.939693 0  
     length 6.65149  
     axis 0 0 20  XYZ
    dof rx ry rz
    limits (-160.0 20.0)
           (-70.0 70.0)
           (-60.0 70.0)
  end
  begin
     id 3 
     name ltibia
     direction 0.34202 -0.939693 0   
     length 6.35814   
     axis 0 0 20   XYZ
    dof rx
    limits (-10.0 170.0)
  end
  begin
     id 4 
     name lfoot
     direction 0.101224 -0.278109 0.955201   
     length 2.18766   
     axis -90 7.62852e-016 20   XYZ
    dof rx rz
    limits (-45.0 90.0)
           (-70.0 20.0)
  end
  begin
     id 5 
     name ltoes
     direction 1.53524e-011 -4.21877e-011 1   
     length 1.09206   
     axis -90 7.62852e-016 20   XYZ
    dof rx
    limits (-90.0 20.0)
  end
  begin
     id 6 
     name rhipjoint
     direction -0.600207 -0.708087 0.371972   
     length 2.1652  
     axis 0 0 0  XYZ 
  end
  begin
     id 7 
     name rfemur
     direction -0.34202 -0.939693 0   
     length 6.54691   
     axis 0 0 -20   XYZ
    dof rx ry rz
    limits (-160.0 20.0)
           (-70.0 70.0)
           (-70.0 60.0)
  end
  begin
     id 8 
     name rtibia
     direction -0.34202 -0.939693 0   
     length 6.37474   
     axis 0 0 -20   XYZ
    dof rx
    limits (-10.0 170.0)
 end
 begin
     id 9 
     name rfoot
     direction -0.111266 -0.3057 0.945604   
     length 2.00903  
     axis -90 -7.62852e-016 -20   XYZ
    dof rx rz
    limits (-45.0 90.0)
           (-20.0 70.0)
  end
  begin
     id 10 
     name rtoes
     direction -1.5362e-011 -4.21913e-011 1   
     length 1.00221   
     axis -90 -7.62852e-016 -20   XYZ
    dof rx
    limits (-90.0 20.0)
  end
  begin
     id 11 
     name lowerback
     direction -0.0224561 0.999731 -0.00577314   
     length 2.10409   
     axis 0 0 0   XYZ
    dof rx ry rz
    limits (-20.0 45.0)
           (-30.0 30.0)
           (-30.0 30.0)
  end
  begin
     id 12 
     name upperback
     direction 0.0213126 0.999185 -0.0342817   
     length 2.09783   
     axis 0 0 0   XYZ
    dof rx ry rz
    limits (-20.0 45.0)
           (-30.0 30.0)
           (-30.0 30.0)
  end
  begin
     id 13 
     name thorax
     direction 0.0312356 0.999036 -0.0308451   
     length 2.09788   
     axis 0 0 0   XYZ
    dof rx ry rz
    limits (-20.0 45.0)
           (-30.0 30.0)
           (-30.0 30.0)
  end
  begin
     id 14 
     name lowerneck
     direction -0.0114419 0.996481 0.0830329   
     length 1.38575   
     axis 0 0 0   XYZ
    dof rx ry rz
    limits (-20.0 45.0)
           (-30.0 30.0)
           (-30.0 30.0)
  end
  begin
     id 15 
     name upperneck
     direction -0.0075675 0.996187 -0.0869092   
     length 1.39401   
     axis 0 0 0   XYZ
    dof rx ry rz
    limits (-20.0 45.0)
           (-30.0 30.0)
           (-30.0 30.0)
  end
  begin
     id 16
     name head
     direction -0.00222073 0.999264 -0.0382974  
     length 1.3964  
     axis 0 0 0   XYZ
    dof rx ry rz
    limits (-20.0 45.0)
           (-30.0 30.0)
           (-30.0 30.0)
  end
  begin
     id 17 
     name lclavicle
     direction 0.965962 0.222138 0.132556  
     length 2.81514  
     axis 0 0 0   XYZ
    dof ry rz
    limits (-20.0 10.0)
           (0.0 20.0)
  end
  begin
     id 18 
     name lhumerus
     direction 1 -4.48972e-011 7.03471e-018   
     length 4.47366   
     axis 180 -30 -90   XYZ
    dof rx ry rz
    limits (-60.0 90.0)
           (-90.0 90.0)
           (-90.0 90.0)
  end
  begin
     id 19
     name lradius
     direction 1 -4.48951e-011 -6.22192e-028   
     length 3.19948   
     axis 180 -30 -90   XYZ
    dof rx
    limits (-10.0 170.0)
  end
  begin
     id 20
     name lwrist
     direction 1 -4.48967e-011 -1.24264e-027   
     length 1.59974   
     axis 1.40095e-015 90 90   XYZ
    dof ry
    limits (-180.0 0.0)
 end
  begin
     id 21 
     name lhand
     direction 1 -4.4897e-011 -2.48528e-027   
     length 0.492667   
     axis 1.58582e-015 90 90   XYZ
    dof rx rz
    limits (-90.0 90.0)
           (-45.0 45.0)
  end
  begin
     id 22 
     name lfingers
     direction 1 -4.48996e-011 -4.97056e-027   
     length 0.397201   
     axis 3.17164e-015 90 90   XYZ
    dof rx
    limits (0.0 90.0)
  end
  begin
     id 23
     name lthumb
     direction 0.707107 -6.34981e-011 0.707107   
     length 0.570303   
     axis -90 45 2.85299e-015   XYZ
    dof rx rz
    limits (-45.0 45.0)
           (-45.0 45.0)
  end
  begin
     id 24 
     name rclavicle
     direction -0.961164 0.229034 0.153972   
     length 3.09348  
     axis 0 0 0   XYZ 
    dof ry rz
    limits (-10.0 20.0)
           (-20.0 0.0)
  end
  begin
     id 25 
     name rhumerus
     direction -1 -4.48971e-011 -9.06263e-028  
     length 4.3269   
     axis 180 30 90   XYZ
    dof rx ry rz
    limits (-90.0 60.0)
           (-90.0 90.0)
           (-90.0 90.0)
  end
  begin
     id 26 
     name rradius
     direction -1 -4.48953e-011 1.44659e-027   
     length 3.1896   
     axis 180 30 90   XYZ
    dof rx
    limits (-10.0 170.0)
  end
  begin
     id 27 
     name rwrist
     direction -1 -4.48988e-011 -1.24264e-027   
     length 1.5948   
     axis 1.40095e-015 -90 -90   XYZ
    dof ry
    limits (-180.0 0.0)
  end
  begin
     id 28
     name rhand
     direction -1 -4.49033e-011 -2.48528e-027   
     length 0.464496   
     axis 1.58582e-015 -90 -90   XYZ
    dof rx rz
    limits (-90.0 90.0)
           (-45.0 45.0)
  end
  begin
     id 29
     name rfingers
     direction -1 -4.48905e-011 -4.97056e-027   
     length 0.374489   
     axis 3.17164e-015 -90 -90   XYZ
    dof rx
    limits (0.0 90.0)
  end
  begin
     id 30
     name rthumb
     direction -0.707107 -6.34909e-011 0.707107   
     length 0.537693   
     axis -90 -45 -2.85299e-015   XYZ
    dof rx rz
    limits (-45.0 45.0)
           (-45.0 45.0)
  end
:hierarchy
  begin
    root lhipjoint rhipjoint lowerback
    lhipjoint lfemur
    lfemur ltibia
    ltibia lfoot
    lfoot ltoes
    rhipjoint rfemur
    rfemur rtibia
    rtibia rfoot
    rfoot rtoes
    lowerback upperback
    upperback thorax
    thorax lowerneck lclavicle rclavicle
    lowerneck upperneck
    upperneck head
    lclavicle lhumerus
    lhumerus lradius
    lradius lwrist
    lwrist lhand lthumb
    lhand lfingers
    rclavicle rhumerus
    rhumerus rradius
    rradius rwrist
    rwrist rhand rthumb
    rhand rfingers
  end

#!OML:ASF G:\acrobat\cartwheel_test 2\Patient 1\Session 2\acrobat4.ASF
:FULLY-SPECIFIED
:DEGREES
220
root 8.49845 14.7114 1.84592 -4.38075 -4.19857 1.56434
lowerback 2.31118 -0.465445 -3.58513
upperback 3.82237 -0.679666 1.82449
thorax 2.70723 -0.469596 3.89402
lowerneck -12.206 -0.783771 -0.0675363
upperneck 9.18538 -0.77616 -2.25968
head 4.74102 -0.530954 -0.748877
rclavicle 4.77083e-015 -8.74653e-015
rhumerus 48.5472 -7.24616 -69.9027
rradius 16.0332
rwrist 30.9549
rhand -21.1372 -24.675
rfingers 7.12502
rthumb 5.24184 -54.5902
lclavicle 4.77083e-015 -8.74653e-015
lhumerus 41.5078 -7.62558 42.0814
lradius 28.7017
lwrist 8.56724
lhand -29.3574 1.40892
lfingers 7.12502
lthumb -2.6969 31.3716
rfemur -18.478 0.443107 17.6306
rtibia 50.2481
rfoot -19.1753 -16.9116
rtoes -12.3504
lfemur -18.486 5.4409 -19.328
ltibia 51.3834
lfoot -24.8749 11.2763
ltoes -12.0797
221
root 8.49928 14.7095 1.84771 -4.3635 -4.12491 1.62275
lowerback 2.33856 -0.470108 -3.59681
upperback 3.76925 -0.686121 1.78587
thorax 2.63687 -0.469973 3.86087
lowerneck -12.1748 -0.792925 -0.0645469
upperneck 9.23415 -0.795368 -2.19995
head 4.75093 -0.536535 -0.732334
rclavicle 8.59744e-015 -1.59028e-015
rhumerus 48.4706 -7.22339 -69.795
rradius 16.0164
rwrist 30.9074
rhand -21.4296 -24.9147
rfingers 7.12502
rthumb 4.95951 -54.8367
lclavicle 8.59744e-015 -1.59028e-015
lhumerus 41.5222 -7.6429 42.068
lradius 28.693
lwrist 8.53533
lhand -29.2876 1.31185
lfingers 7.12502
lthumb -2.62946 31.2754
rfemur -18.5022 0.379287 17.5556
rtibia 50.3042
rfoot -19.1964 -16.9477
rtoes -12.4914
lfemur -18.5331 5.4335 -19.407
ltibia 51.4192
lfoot -24.857 11.2689
ltoes -12.0766
222
root 8.49967 14.7071 1.84856 -4.331 -4.06877 1.61933
lowerback 2.3795 -0.490102 -3.56836
upperback 3.68231 -0.714195 1.78662
thorax 2.52581 -0.47927 3.84616
lowerneck -12.0127 -0.785709 -0.0307026
upperneck 9.21783 -0.792172 -2.20693
head 4.71898 -0.533255 -0.738683
rclavicle -1.37658e-014 3.18055e-015
rhumerus 48.3428 -7.06863 -69.597
rradius 16.0323
rwrist 30.7844
rhand -21.6722 -25.4691
rfingers 7.12502
rthumb 4.7253 -55.3964
lclavicle -1.37658e-014 3.18055e-015
lhumerus 41.4364 -7.63866 42.1083
lradius 28.6963
lwrist 8.60218
lhand -29.1248 1.18257
lfingers 7.12502
lthumb -2.47226 31.148
rfemur -18.5465 0.318959 17.5591
rtibia 50.3567
rfoot -19.1891 -16.9929
rtoes -12.685
lfemur -18.5981 5.44877 -19.4088
ltibia 51.4602
lfoot -24.8582 11.235
ltoes -11.9615
223
root 8.49988 14.7061 1.84952 -4.29125 -4.03342 1.61419
lowerback 2.37232 -0.488987 -3.54423
upperback 3.64438 -0.712397 1.78622
thorax 2.48988 -0.476243 3.83215
lowerneck -11.9019 -0.774759 0.0576969
upperneck 9.13757 -0.787568 -2.26719
head 4.67527 -0.530605 -0.770256
rclavicle -3.72721e-015 1.03368e-014
rhumerus 48.3141 -7.07037 -69.5233
rradius 16.0425
rwrist 30.8029
rhand -21.4564 -25.2574
rfingers 7.12502
rthumb 4.93363 -55.1799
lclavicle -3.72721e-015 1.03368e-014
lhumerus 41.4467 -7.54623 42.2384
lradius 28.659
lwrist 8.59027
lhand -29.1167 1.08557
lfingers 7.12502
lthumb -2.46444 31.0511
rfemur -18.5999 0.267702 17.5629
rtibia 50.3998
rfoot -19.2073 -17.0119
rtoes -12.8112
lfemur -18.674 5.44341 -19.4029
ltibia 51.5074
lfoot -24.9076 11.1849
ltoes -11.9328
224
root 8.50009 14.7056 1.85149 -4.26183 -4.00236 1.599
lowerback 2.34352 -0.461534 -3.4817
upperback 3.64726 -0.674185 1.77572
thorax 2.50418 -0.455635 3.78564
lowerneck -11.8866 -0.795121 0.0931594
upperneck 9.07641 -0.821161 -2.27494
head 4.65318 -0.545838 -0.780453
rclavicle 5.46658e-015 1.11319e-014
rhumerus 48.3724 -7.2816 -69.6204
rradius 16.0021
rwrist 31.0313
rhand -21.3003 -24.9063
rfingers 7.12502
rthumb 5.08444 -54.8253
lclavicle 5.46658e-015 1.11319e-014
lhumerus 41.562 -7.48784 42.3329
lradius 28.6306
lwrist 8.53981
lhand -29.0946 1.1395
lfingers 7.12502
lthumb -2.44303 31.1053
rfemur -18.6243 0.246115 17.5765
rtibia 50.4344
rfoot -19.2853 -17.0297
rtoes -12.7107
lfemur -18.7292 5.44299 -19.3866
ltibia 51.5562
lfoot -24.9541 11.1459
ltoes -11.9949
225
root 8.49976 14.7045 1.8537 -4.24701 -3.9811 1.53353
lowerback 2.32454 -0.430791 -3.37057
upperback 3.64633 -0.632019 1.78554
thorax 2.50825 -0.431813 3.7329
lowerneck -11.7992 -0.847622 0.0614914
upperneck 8.97349 -0.892094 -2.24596
head 4.60635 -0.578788 -0.770443
rclavicle 9.98893e-015 -1.59028e-015
rhumerus 48.3826 -7.41659 -69.6181
rradius 15.9628
rwrist 31.1462
rhand -21.2778 -25.1749
rfingers 7.12502
rthumb 5.10608 -55.0933
lclavicle 9.98893e-015 -1.59028e-015
lhumerus 41.6754 -7.52258 42.3294
lradius 28.6084
lwrist 8.53165
lhand -29.0489 1.34573
lfingers 7.12502
lthumb -2.39892 31.312
rfemur -18.624 0.25267 17.6542
rtibia 50.461
rfoot -19.3312 -17.066
rtoes -12.5225
lfemur -18.7591 5.45862 -19.3128
ltibia 51.6013
lfoot -24.9765 11.1378
ltoes -12.0463
226
root 8.49889 14.7021 1.85695 -4.26656 -3.97959 1.48158
lowerback 2.33727 -0.42764 -3.31117
upperback 3.63898 -0.628374 1.81453
thorax 2.49261 -0.428447 3.72953
lowerneck -11.7401 -0.867614 0.00256969
upperneck 8.92993 -0.911789 -2.23329
head 4.5833 -0.589119 -0.757799
rclavicle -1.34677e-014 4.77083e-015
rhumerus 48.3728 -7.47622 -69.6966
rradius 15.9485
rwrist 31.3245
rhand -21.1589 -25.2118
rfingers 7.12502
rthumb 5.22094 -55.1275
lclavicle -1.34677e-014 4.77083e-015
lhumerus 41.6525 -7.56876 42.2403
lradius 28.6254
lwrist 8.664
lhand -29.1909 1.41129
lfingers 7.12502
lthumb -2.53603 31.376
rfemur -18.5898 0.275707 17.7192
rtibia 50.4808
rfoot -19.3562 -17.0879
rtoes -12.4557
lfemur -18.7415 5.50617 -19.2408
ltibia 51.6425
lfoot -25.0341 11.1273
ltoes -12.143
227
root 8.49829 14.7001 1.86214 -4.31889 -3.98311 1.45842
lowerback 2.35681 -0.434529 -3.28381
upperback 3.64345 -0.638251 1.83007
thorax 2.48694 -0.432902 3.73035
lowerneck -11.6932 -0.863919 0.0173792
upperneck 8.89717 -0.906906 -2.26228
head 4.56532 -0.587573 -0.768328
rclavicle -5.61567e-015 3.18055e-015
rhumerus 48.3981 -7.51417 -69.8033
rradius 15.9083
rwrist 31.5646
rhand -21.1789 -25.0169
rfingers 7.12502
rthumb 5.20161 -54.9331
lclavicle -5.61567e-015 3.18055e-015
lhumerus 41.5826 -7.57447 42.1604
lradius 28.6606
lwrist 8.78648
lhand -29.2027 1.36006
lfingers 7.12502
lthumb -2.54746 31.3246
rfemur -18.512 0.292148 17.7485
rtibia 50.4952
rfoot -19.3753 -17.1133
rtoes -12.5112
lfemur -18.6704 5.55499 -19.198
ltibia 51.6753
lfoot -25.0555 11.1292
ltoes -12.3116
228
root 8.498 14.6989 1.86739 -4.31744 -3.95246 1.43426
lowerback 2.28221 -0.451255 -3.25807
upperback 3.66736 -0.659099 1.86765
thorax 2.55568 -0.445053 3.75411
lowerneck -11.5181 -0.868844 0.0290944
upperneck 8.66994 -0.912245 -2.33866
head 4.46597 -0.592063 -0.791831
rclavicle -2.82771e-014 -8.74653e-015
rhumerus 48.5006 -7.54526 -69.8369
rradius 15.857
rwrist 31.7901
rhand -21.0336 -24.842
rfingers 7.12502
rthumb 5.34189 -54.7547
lclavicle -2.82771e-014 -8.74653e-015
lhumerus 41.5545 -7.75245 41.8061
lradius 28.7906
lwrist 9.24157
lhand -29.1278 1.42587
lfingers 7.12502
lthumb -2.47514 31.3913
rfemur -18.4896 0.309024 17.7751
rtibia 50.5166
rfoot -19.3458 -17.2055
rtoes -12.5954
lfemur -18.6649 5.56239 -19.1758
ltibia 51.7067
lfoot -25.0278 11.1532
ltoes -12.36
229
root 8.49841 14.698 1.87086 -4.30173 -3.89415 1.45172
lowerback 2.2193 -0.487915 -3.28623
upperback 3.67496 -0.707706 1.92782
thorax 2.60484 -0.47223 3.83184
lowerneck -11.3268 -0.865438 -0.115391
upperneck 8.47604 -0.889545 -2.33948
head 4.37589 -0.58332 -0.764827
rclavicle 2.63887e-014 3.18055e-015
rhumerus 48.6125 -7.55673 -69.8909
rradius 15.8339
rwrist 32.0183
rhand -20.6202 -24.3973
rfingers 7.12502
rthumb 5.74104 -54.2995
lclavicle 2.63887e-014 3.18055e-015
lhumerus 41.4661 -7.92622 41.4734
lradius 28.9358
lwrist 9.70597
lhand -29.1898 1.49882
lfingers 7.12502
lthumb -2.535 31.4635
rfemur -18.4942 0.285983 17.7467
rtibia 50.5493
rfoot -19.3583 -17.2748
rtoes -12.7175
lfemur -18.6856 5.5372 -19.2114
ltibia 51.7347
lfoot -25.0301 11.1728
ltoes -12.2508
230
root 8.49838 14.6951 1.87334 -4.33187 -3.84752 1.49774
lowerback 2.26521 -0.50283 -3.32787
upperback 3.65037 -0.729401 1.94352
thorax 2.55658 -0.483029 3.87215
lowerneck -11.2316 -0.846182 -0.252188
upperneck 8.46416 -0.854087 -2.23809
head 4.35812 -0.56365 -0.708318
rclavicle -1.963e-014 -1.43125e-014
rhumerus 48.685 -7.68158 -70.1012
rradius 15.7673
rwrist 32.3766
rhand -20.4437 -24.2133
rfingers 7.12502
rthumb 5.91142 -54.1108
lclavicle -1.963e-014 -1.43125e-014
lhumerus 41.4195 -7.64954 41.9196
lradius 28.7956
lwrist 9.17829
lhand -29.1528 1.54349
lfingers 7.12502
lthumb -2.49924 31.5086
rfemur -18.4665 0.262634 17.692
rtibia 50.5916
rfoot -19.3745 -17.256
rtoes -12.55
lfemur -18.6595 5.50308 -19.2648
ltibia 51.7625
lfoot -25.0676 11.1439
ltoes -12.1201
231
root 8.49717 14.6926 1.87683 -4.36352 -3.79812 1.4984
lowerback 2.31447 -0.495811 -3.30829
upperback 3.63024 -0.721082 1.9359
thorax 2.50677 -0.476833 3.8537
lowerneck -11.187 -0.83544 -0.262703
upperneck 8.48141 -0.843634 -2.18708
head 4.35645 -0.555669 -0.689989
rclavicle -1.5704e-014 -1.59028e-015
rhumerus 48.7524 -7.91877 -70.3758
rradius 15.6765
rwrist 32.7646
rhand -20.5749 -24.6077
rfingers 7.12502
rthumb 5.7848 -54.5088
lclavicle -1.5704e-014 -1.59028e-015
lhumerus 41.4552 -7.39141 42.3928
lradius 28.6358
lwrist 8.60602
lhand -29.0448 1.59755
lfingers 7.12502
lthumb -2.39497 31.5639
rfemur -18.429 0.260775 17.702
rtibia 50.6276
rfoot -19.3372 -17.2673
rtoes -12.2818
lfemur -18.6388 5.49829 -19.2545
ltibia 51.7945
lfoot -25.1162 11.0423
ltoes -11.9156
232
root 8.49719 14.6929 1.88131 -4.36414 -3.73497 1.47424
lowerback 2.29161 -0.510295 -3.26891
upperback 3.6316 -0.739869 1.95248
thorax 2.52232 -0.485802 3.8484
lowerneck -11.1064 -0.822669 -0.252602
upperneck 8.40341 -0.828058 -2.20801
head 4.31926 -0.547905 -0.696129
rclavicle -9.49197e-015 1.19271e-014
rhumerus 48.8087 -7.9806 -70.435
rradius 15.6556
rwrist 32.8799
rhand -20.599 -25.0075
rfingers 7.12502
rthumb 5.7615 -54.9092
lclavicle -9.49197e-015 1.19271e-014
lhumerus 41.4353 -7.41086 42.374
lradius 28.6683
lwrist 8.64903
lhand -29.075 1.64482
lfingers 7.12502
lthumb -2.42416 31.6108
rfemur -18.3996 0.215303 17.7267
rtibia 50.6416
rfoot -19.3938 -17.3464
rtoes -12.3819
lfemur -18.6496 5.50729 -19.2272
ltibia 51.8298
lfoot -25.1693 10.9387
ltoes -11.7739
233
root 8.49583 14.6925 1.88626 -4.36294 -3.71252 1.39696
lowerback 2.25153 -0.532546 -3.20964
upperback 3.64541 -0.769279 2.0058
thorax 2.56171 -0.500867 3.86977
lowerneck -10.9694 -0.797609 -0.27281
upperneck 8.24131 -0.794179 -2.22213
head 4.24736 -0.530726 -0.693303
rclavicle 2.25124e-014 -1.19271e-014
rhumerus 48.9195 -8.03 -70.5506
rradius 15.6298
rwrist 33.1633
rhand -20.4888 -24.9027
rfingers 7.12502
rthumb 5.86791 -54.8014
lclavicle 2.25124e-014 -1.19271e-014
lhumerus 41.3685 -7.44467 42.2599
lradius 28.7411
lwrist 8.77105
lhand -29.2043 1.73641
lfingers 7.12502
lthumb -2.54897 31.7009
rfemur -18.3702 0.257088 17.8163
rtibia 50.6383
rfoot -19.4996 -17.4173
rtoes -12.269
lfemur -18.6506 5.56362 -19.1286
ltibia 51.8738
lfoot -25.2255 10.8502
ltoes -11.6807
